<svg viewBox="0 0 60 50" fill="none" xmlns="http://www.w3.org/2000/svg"><path d="M51.2 19.05a22.3 22.3 0 0 0-6.88-9.13 21.5 21.5 0 0 0-21.62-2.95 21.95 21.95 0 0 0-9 6.97 22.76 22.76 0 0 0-3.04 22.04 22.31 22.31 0 0 0 6.78 9.22c3 2.42 6.57 4 10.36 4.56-.5-1.82-1-3.84-1.44-5.98 1.29.86 2.65 1.6 4.07 2.23 0 0 .1 1.88.24 3.99a21.7 21.7 0 0 0 4.55-.41 1.9 1.9 0 0 1 0-.67c.25-1.63.94-4.57 1.07-6.46.99-.94 1.83-2.03 2.48-3.24l-.05.39c-.47 3.71-1.45 7.68-2.05 8.78-.2.37-.43.7-.71 1 3.1-.74 6-2.16 8.5-4.15 2.5-2 4.55-4.53 6-7.42a22.73 22.73 0 0 0 .75-18.77Zm-1.25 3.3c-.38.38-1.15.64-1.28-.5a30.8 30.8 0 0 1-.16-1.93s-1.65-2.99-2.27-3.02c-.62-.04-4.99 3.02-6.14 4.36-1 1.12-1.2 1.05-1.2 3.03 0 1.49.19 7.12.09 11.43l-6.97 1.9a53.8 53.8 0 0 1-6.67 1.5l-.86-5.09h-.12l-2.2-11.49s-3.25-1.26-4.45-1.6a3.16 3.16 0 0 0-3.42.55 4.42 4.42 0 0 0-1.48 3.36c.18.4.32.83.4 1.27.05.42-1.02.37-1.7.37-.69 0-.79-1.25-.25-2.73a19.9 19.9 0 0 1 1.56-3.26c.46-.93 1.06-1.78 1.77-2.52 0 0 .12-.3 1.07-.21.95.09 6.22.37 6.22.37l.05-1.98c5.73-.8 11.51-1.2 17.3-1.17v1.6a18.95 18.95 0 0 1 6.97-1.74.76.76 0 0 1 .65.34c.3.37 2.06 2.61 2.27 2.94.57.83 1.1 1.7 1.57 2.61a5.5 5.5 0 0 1-.75 1.6v.02Z" fill="#FDC305"/><path d="m48.28 17.02.86 1.12c.57.84 1.1 1.72 1.56 2.62a5.5 5.5 0 0 1-.73 1.55c-.38.38-1.16.63-1.28-.5-.13-1.14-.18-1.89-.18-1.89s-1.65-2.99-2.27-3.02c-.62-.04-4.99 3.02-6.14 4.36-1 1.12-1.2 1.05-1.2 3.03 0 1.3.15 5.8.11 9.8 1.55.17 3.83.6 4.51 1.63 0 0-.25-6.26 6.68-2.98 0 0 .24-8.54 9.8-6.35a37.5 37.5 0 0 0-11.72-9.37Zm-9-2.02c.03-4.84-.37-9.67-1.2-14.43 0 0-.13-1.13-.74-.2-.51 1.1-.86 2.27-1.03 3.48a59.42 59.42 0 0 0-10.96.3c-.7-2.4-1.9-3.49-2.47-3.2-.58.29-.65 2.86-.65 2.86l-.28 12.35a121 121 0 0 1 17.33-1.17Z" fill="#F06351"/><path d="M38.78 39.22c.11-.93.17-2.17.2-3.54l-6.96 1.9a53.8 53.8 0 0 1-6.67 1.54l.95 4.36c0 .1 0 .2.06.29 1.3.85 2.65 1.6 4.07 2.22 2.07-1 4.04-2.21 5.88-3.6v.05c.98-.94 1.82-2.02 2.47-3.22Z" fill="#E55645"/><path d="M27.37 12.26c-.05-.08.85.6 1.2.8.35.22.52.37.52.52 0 .15-.22.3-.53.3-.3 0-.78-.1-.85-.23-.07-.12.51 0 .8 0h.25c-.53-.4-1-.86-1.4-1.39Zm6.41.1s-.86 1.12-.93 1.17c-.08.05-.15.3.16.25.35-.05.7-.13 1.04-.24.1-.06.06-.18-.1-.16-.16.02-.58.04-.85.1l.72-1.11s.03-.1-.04-.01Zm-2.68 5.33c.4-.18.72-.49.93-.87.24-.58 0-.8-.38-.88-.52-.1-1.05.01-1.5.3-.33.32-.29.64 0 .87.3.24.6.43.94.58Z" fill="#000"/><path d="M30.79 18.79a1.46 1.46 0 0 1-1.25.86c-.47.04-.94-.1-1.32-.39a1.7 1.7 0 0 1-.45-.4.85.85 0 0 0-.31-.21s.64 3.59 2.2 4.16c1.55.58 1.84-.66 1.89-1 .05-.99-.2-1.97-.7-2.82 0-.26-.02-.09-.06-.2Z" fill="#F06351"/><path d="M29.33 19.78a2.96 2.96 0 0 1-2-1.24.13.13 0 0 1 0-.18.12.12 0 0 1 .13-.03l.03.03a2.78 2.78 0 0 0 1.8 1.14 1.78 1.78 0 0 0 1.41-.87l.12-.16.09.19s.32.66.85.7c.53.03.9-.37 1.4-1.13a.12.12 0 0 1 .17-.03c.02.01.04.04.05.08 0 .03 0 .06-.02.09-.57.86-1.1 1.27-1.62 1.23a1.3 1.3 0 0 1-.95-.64 1.95 1.95 0 0 1-1.46.82Z" fill="#000"/><path d="M31 31.53a3.25 3.25 0 0 0 3.22-3.27 3.25 3.25 0 0 0-3.21-3.28 3.24 3.24 0 0 0-3.2 3.28c0 1.8 1.43 3.27 3.2 3.27Z" fill="#FDC305"/><path d="m35.26 25.6-2.68 1.14.99-4.91-6.42 8.51 2.68-1.14-.98 4.92 6.4-8.53Zm-6.32 3.34 3.56-4.72-.7 3.49 1.71-.72-3.58 4.73.7-3.5-1.7.72Zm-1.2-1.29c.53 0 .96-.43.96-.97a.97.97 0 0 0-.96-.98.97.97 0 0 0-.96.98c0 .54.43.97.96.97Zm5.58 3.55c.37 0 .67-.31.67-.7 0-.37-.3-.68-.67-.68-.38 0-.68.3-.68.69 0 .38.3.69.68.69Zm.82-1.9a.3.3 0 0 0 .3-.3.3.3 0 0 0-.3-.3.3.3 0 0 0-.3.3c0 .17.13.3.3.3Z" fill="#111"/><path d="M39.24 16.57c-1.55 1.42-3 2.94-4.36 4.55a27.48 27.48 0 0 1-4.54 4.27c-.19-.46-1.4-1.32-1.4-1.32s-2.68-1.88-4.44-3.35a27.62 27.62 0 0 1-2.68-2.62l-1.71-.1a19.39 19.39 0 0 0 10.26 7.72c.73-.13 2.8-1.64 4.35-2.87a49.8 49.8 0 0 0 5.13-5.15c.43-.52.76-1.1.98-1.75-.98.34-1.6.62-1.6.62Zm-17.06 5.97s-3.26-1.26-4.46-1.6a3.16 3.16 0 0 0-3.42.55 4.42 4.42 0 0 0-1.48 3.36c.18.4.32.83.41 1.27.04.42-1.03.37-1.71.37-.68 0-.79-1.25-.25-2.73a19.9 19.9 0 0 1 1.56-3.26c-4.66 2.48-12.83 8.2-12.83 8.2a38.4 38.4 0 0 1 7 .21c4.5.46 4.28 4.07 4.28 4.07 1.58-.44 3.19-.76 4.81-.96 1.82-.13 1.95 1.85 1.95 1.85l.45 3.36c.69-.76 1.45-1.45 2.27-2.06a5.11 5.11 0 0 1 3.74-1.13l-2.32-11.5Z" fill="#F06351"/></svg>