<svg xmlns="http://www.w3.org/2000/svg" width="32" height="32" fill="none" viewBox="0 0 32 32"><style>@media (prefers-color-scheme:dark){rect{fill:#2f2f2f}path{fill:#eee}}</style><rect width="32" height="32" fill="#EEE" rx="8"/><path fill="#111" d="M5.8 21C5.2 20 5 19 5 18v-4c0-1.1.2-2.1.8-3 .6-.7 1.5-1 2.8-1 1.3 0 2.2.3 2.6.9.6.7.9 1.6.8 2.5v1H9.6V12.5a1 1 0 0 0-.4-.6 1 1 0 0 0-.6-.2l-.5.1c-.2 0-.3.2-.4.3a3 3 0 0 0-.2 1.3v5.3c0 .4 0 .8.2 1.2l.4.3.5.1H9l.4-.4.2-1.2v-1.1H12v1a4 4 0 0 1-.7 2.5c-.6.6-1.4.9-2.7.9-1.3 0-2.2-.3-2.8-1ZM15.2 10h2.6L20 22h-2.2l-.3-2.7h-1.9l-.4 2.7H13l2.2-12Zm2 7.8-.7-4.8-.7 4.8h1.4ZM21.8 11.8H20V10h6v1.8h-1.8V22h-2.4V11.8Z"/></svg>
